 <svg
                width="23"
                height="26"
                viewBox="0 0 23 26"
                fill="none"
                xmlns="http://www.w3.org/2000/svg"
              >
                <path
                  d="M14.662 1.0689C9.7339 1.39236 7.07975 0.808819 1.42183 1.0689C1.64048 10.6813 0.902168 15.8644 1.42183 24.8193C9.78632 24.412 13.6354 25.3824 21.2138 24.8193C21.6229 17.9542 21.1428 14.2907 21.2138 7.62073M14.662 1.0689C17.1801 3.64209 18.9142 4.90945 21.2138 7.62073M14.662 1.0689C14.4933 3.67794 14.8319 5.12832 14.662 7.62073C17.3113 7.63988 18.7652 7.77174 21.2138 7.62073"
                  stroke="83855E"
                  stroke-width="2"
                  stroke-linejoin="round"
                />
                <path
                  d="M12.4994 10.6763V18.5264M12.4994 10.6763C16.9997 11.7764 15.9997 14.7761 16.9997 16.2761C17.7997 17.4761 17.4997 17.2761 17.4997 17.2761C16.6663 16.9427 15.1917 15.0443 14.9997 14.2764C14.4997 12.2764 13.4992 11.1763 12.4994 10.6763ZM12.4994 18.5264C12.5 20.7764 10.5 22.3758 9.7501 21.7761M12.4994 18.5264C11 17.7764 8.50011 20.7764 9.7501 21.7761M12.4994 18.5264L9.7501 21.7761"
                  stroke="#83855E"
                  stroke-width="2"
                  stroke-linecap="round"
                  stroke-linejoin="round"
                />
                <path
                  d="M6.90295 14.5264C7.00563 12.8019 6.85268 11.9414 6.90295 10.2764M9.04102 12.4143C7.31654 12.3116 6.45606 12.4645 4.79102 12.4143"
                  stroke="#83855E"
                  stroke-width="1.6"
                  stroke-linecap="round"
                />
              </svg>
