<svg width="26" height="27" viewBox="0 0 26 27" fill="none" xmlns="http://www.w3.org/2000/svg">
<path d="M4.80943 4.89797C4.95312 12.5149 4.24687 16.7892 4.80943 25.0884C11.4747 25.7587 15.0679 25.3278 21.5713 25.0884C21.6861 17.8256 22.0011 13.3562 21.5713 4.89797M21.5713 4.89797H24.9999M21.5713 4.89797H17.3809M1.38086 4.89797H8.99991M8.99991 4.89797C8.93017 3.31845 8.89315 2.45128 8.99991 1.08845C12.035 0.869294 13.6967 1.13184 17.3809 1.08845C17.5668 2.38357 17.5129 3.26856 17.3809 4.89797M8.99991 4.89797H17.3809M8.99991 8.7075C9.31348 13.3907 8.92102 16.7179 8.99991 21.2789M13.1904 8.7075C13.426 13.065 13.4457 15.7142 13.1904 21.2789M17.3809 8.7075C17.1322 13.3715 17.0312 16.6189 17.3809 21.2789" stroke="black" stroke-opacity="0.48" stroke-width="2" stroke-linecap="round" stroke-linejoin="round"/>
</svg>
