<svg width="32" height="32" viewBox="0 0 32 32" fill="none" xmlns="http://www.w3.org/2000/svg">
<path d="M10.6966 27.9437C8.21989 25.1154 6.82817 23.5373 4.05274 21.2999M10.6966 27.9437C7.57005 29.0512 5.69371 29.5279 2.90206 29.9894C2.37761 30.0761 1.92526 29.6196 2.01607 29.0958C2.51859 26.1976 3.00388 24.3268 4.05274 21.2999M10.6966 27.9437C16.8872 21.5351 20.3942 18.0064 26.7525 11.8878M4.05274 21.2999C10.0599 14.7658 13.5257 11.2014 20.1086 5.24399M20.1086 5.24399C21.2751 4.16134 22.0283 3.41088 22.9206 2.48358C23.5134 1.86752 24.4909 1.83109 25.1048 2.42606C26.7041 3.97587 27.8935 5.30303 29.5367 6.94366C30.1378 7.54378 30.1745 8.51558 29.5916 9.13333C28.7442 10.0313 27.9807 10.7794 26.7525 11.8878M20.1086 5.24399C22.8695 7.66856 24.088 9.35639 26.7525 11.8878" stroke="#81835C" stroke-opacity="0.64" stroke-width="3"/>
</svg>
