<svg width="440" height="440" viewBox="0 0 440 440" fill="none" xmlns="http://www.w3.org/2000/svg">
<path d="M317.617 221.871C317.617 213.677 316.952 207.698 315.513 201.497H221.947V238.48H276.868C275.761 247.671 269.782 261.512 256.494 270.813L256.308 272.051L285.892 294.97L287.941 295.174C306.765 277.789 317.617 252.211 317.617 221.871Z" fill="#4285F4"/>
<path d="M221.947 319.313C248.854 319.313 271.442 310.454 287.941 295.174L256.494 270.813C248.079 276.681 236.784 280.778 221.947 280.778C195.593 280.778 173.226 263.394 165.253 239.366L164.084 239.465L133.322 263.272L132.92 264.391C149.308 296.945 182.97 319.313 221.947 319.313Z" fill="#34A853"/>
<path d="M165.253 239.366C163.149 233.166 161.931 226.521 161.931 219.656C161.931 212.791 163.149 206.147 165.142 199.946L165.086 198.626L133.939 174.437L132.92 174.921C126.166 188.43 122.29 203.601 122.29 219.656C122.29 235.712 126.166 250.882 132.92 264.391L165.253 239.366Z" fill="#FBBC05"/>
<path d="M221.947 158.534C240.66 158.534 253.283 166.617 260.48 173.372L288.605 145.911C271.332 129.855 248.854 120 221.947 120C182.97 120 149.308 142.367 132.92 174.921L165.142 199.947C173.226 175.918 195.593 158.534 221.947 158.534Z" fill="#EB4335"/>
</svg>
