<svg width="16" height="24" viewBox="0 0 16 24" fill="none" xmlns="http://www.w3.org/2000/svg">
<path fill-rule="evenodd" clip-rule="evenodd" d="M5.97101 0.141243C6.13257 0.0150789 6.34318 -0.0297509 6.54211 0.0196824C8.20893 0.433878 9.50865 0.889594 10.7828 1.34597C10.8616 1.37422 10.9404 1.40245 11.0191 1.43067C12.2122 1.8586 13.3981 2.28392 14.8898 2.69009C15.1757 2.76795 15.376 3.0252 15.3812 3.3215C15.4363 6.42134 15.3908 8.87926 15.3471 11.2469C15.342 11.52 15.337 11.7918 15.3321 12.0634C15.2853 14.6883 15.255 17.2856 15.3809 20.6417C15.3909 20.9101 15.2389 21.1584 14.9952 21.2714C12.6649 22.3525 10.9647 22.7974 8.98256 23.3161C8.23406 23.512 7.44537 23.7184 6.56737 23.9735C6.36378 24.0327 6.1442 23.9915 5.9759 23.8625C5.8076 23.7336 5.71067 23.5323 5.7148 23.3203C5.72816 22.6345 5.73953 21.9738 5.74913 21.3351C5.16355 21.3339 4.66428 21.3251 4.19464 21.3169C3.29108 21.301 2.4972 21.2871 1.40929 21.3327C1.23241 21.3402 1.05983 21.2769 0.92963 21.157C0.799425 21.037 0.722279 20.8702 0.715206 20.6933C0.536601 16.2266 0.591489 12.8855 0.650812 9.27439C0.681164 7.42682 0.712677 5.50857 0.714674 3.33273C0.714966 3.014 0.940819 2.74007 1.25364 2.67902C2.31626 2.47163 2.94665 2.49508 3.97444 2.67286C4.65942 2.74676 5.10888 2.73945 5.71597 2.7056C5.71435 2.04881 5.71381 1.37053 5.71467 0.66586C5.71492 0.460879 5.80946 0.267407 5.97101 0.141243ZM7.04764 1.53071C7.04866 4.2215 7.06943 6.54309 7.08955 8.79189C7.12688 12.9634 7.16197 16.8844 7.06452 22.447C7.66033 22.2824 8.20816 22.1391 8.72826 22.003C10.5467 21.5272 12.0261 21.14 14.0325 20.2447C13.924 17.0657 13.9541 14.5557 13.999 12.0396C14.0039 11.7675 14.0089 11.4955 14.0139 11.2225C14.0553 8.98342 14.0978 6.68446 14.0561 3.84148C12.7339 3.4623 11.6384 3.06937 10.5753 2.68803C10.4945 2.65902 10.4138 2.63008 10.3332 2.60121C9.2935 2.22881 8.26654 1.86783 7.04764 1.53071Z" fill="#0B3D2A"/>
<path d="M10.7146 11.8333C10.7146 12.4777 10.3813 13 9.54793 13C8.9036 13 8.38126 12.3333 8.38126 11.8333C8.38126 11.189 8.7146 10.6667 9.54793 10.6667C10.3813 10.6667 10.7146 11.189 10.7146 11.8333Z" fill="#0B3D2A"/>
</svg>
