<svg width="296" height="39" viewBox="0 0 296 39" fill="none" xmlns="http://www.w3.org/2000/svg">
<path fill-rule="evenodd" clip-rule="evenodd" d="M18.1874 36.983C32.073 40.2117 40.618 38.0592 40.618 32.678C40.618 28.3731 37.7696 27.2968 36.3455 27.2968C37.0576 23.3506 36.3455 19.7643 33.1411 19.7632C34.2093 15.4582 28.8686 11.1543 27.8005 13.3068C26.946 3.836 21.0357 2.18581 18.1874 2.54455C17.6919 6.53839 15.7254 9.23547 14.0151 11.5811C12.0386 14.2918 10.4043 16.5332 11.7786 19.7642C9.6424 19.7642 5.3699 24.0692 8.57425 27.2968C4.30175 27.2968 1.09738 33.7543 4.30175 35.9068C6.86525 37.6287 15.339 38.0592 18.1874 36.983Z" fill="#0B3D2A"/>
<path d="M10.9287 28.0001L19.9287 32.5001L29.5716 30.5715V20.9286L27.643 14.5001L23.7859 13.2144L10.9287 15.1429V28.0001Z" fill="white"/>
<path fill-rule="evenodd" clip-rule="evenodd" d="M37.618 31.178C37.618 36.5592 29.073 38.7117 15.1874 35.483C12.339 36.5592 3.86525 36.1287 1.30175 34.4068C-1.90262 32.2543 1.30175 25.7968 5.57425 25.7968C2.3699 22.5692 6.6424 18.2642 8.77865 18.2642C7.40432 15.0332 9.03857 12.7918 11.0151 10.0811C12.7254 7.73547 14.6919 5.03839 15.1874 1.04455C18.0357 0.685805 23.946 2.336 24.8005 11.8068C25.8686 9.65429 31.2093 13.9582 30.1411 18.2632C33.3455 18.2643 34.0576 21.8506 33.3455 25.7968C34.7696 25.7968 37.618 26.8731 37.618 31.178ZM17.7978 19.6067C17.7978 21.3939 16.3491 22.8426 14.5619 22.8426C12.7747 22.8426 11.3259 21.3939 11.3259 19.6067C11.3259 17.8195 12.7747 16.3707 14.5619 16.3707C16.3491 16.3707 17.7978 17.8195 17.7978 19.6067ZM23.4608 20.8202C25.2479 20.8202 26.6967 19.3714 26.6967 17.5842C26.6967 15.7971 25.2479 14.3483 23.4608 14.3483C21.6736 14.3483 20.2248 15.7971 20.2248 17.5842C20.2248 19.3714 21.6736 20.8202 23.4608 20.8202Z" fill="#BA643D"/>
<circle cx="14.1573" cy="20.4156" r="1.21348" fill="#0B3D2A"/>
<circle cx="24.2696" cy="17.5846" r="1.21348" fill="#0B3D2A"/>
<path fill-rule="evenodd" clip-rule="evenodd" d="M23.2137 24.2455C23.7791 23.8857 24.5292 24.0524 24.889 24.6178C25.5229 25.614 25.4179 26.796 25.0684 27.7321C24.7102 28.6915 24.0278 29.6071 23.1495 30.2619C22.2642 30.9218 21.1123 31.363 19.8385 31.2254C18.549 31.0861 17.3174 30.3738 16.2519 29.0714C15.8275 28.5527 15.9039 27.7882 16.4226 27.3638C16.9413 26.9394 17.7059 27.0159 18.1302 27.5346C18.8849 28.457 19.5747 28.7558 20.0991 28.8125C20.6392 28.8708 21.1938 28.6926 21.6989 28.3161C22.211 27.9343 22.6031 27.3963 22.7948 26.8831C22.9951 26.3465 22.9154 26.037 22.8414 25.9208C22.4816 25.3554 22.6483 24.6053 23.2137 24.2455Z" fill="#0B3D2A"/>
<g filter="url(#filter0_d_261_28)">
<path d="M60.5942 7.992C63.4102 7.992 65.4795 8.64267 66.8022 9.944C68.1462 11.2453 68.8182 12.952 68.8182 15.064C68.8182 16.5147 68.4768 17.7733 67.7942 18.84C67.1328 19.9067 66.2262 20.7387 65.0742 21.336C63.9435 21.912 62.6528 22.2 61.2022 22.2C60.6902 22.2 60.1462 22.1573 59.5702 22.072C58.9942 21.9653 58.3968 21.8053 57.7782 21.592L58.0662 20.696C58.2368 21.1653 58.3755 21.752 58.4822 22.456C58.6102 23.1387 58.7062 23.8533 58.7702 24.6C58.8555 25.3253 58.8982 25.9973 58.8982 26.616C58.8982 28.1093 58.5355 29.2507 57.8102 30.04C57.1062 30.8293 56.0395 31.224 54.6102 31.224C53.5222 31.224 52.6688 30.968 52.0502 30.456C51.4528 29.9227 51.0262 29.0587 50.7702 27.864C50.5355 26.6693 50.4182 25.08 50.4182 23.096C50.4182 20.408 50.5782 18.1147 50.8982 16.216C51.2395 14.3173 51.7195 12.8027 52.3382 11.672C52.9568 10.5413 53.9702 9.64533 55.3782 8.984C56.7862 8.32267 58.5248 7.992 60.5942 7.992ZM59.6982 17.592C60.7435 17.592 61.6075 17.3253 62.2902 16.792C62.9942 16.2587 63.3462 15.5333 63.3462 14.616C63.3462 14.0187 63.1542 13.528 62.7702 13.144C62.4075 12.7387 61.7675 12.536 60.8502 12.536C60.1462 12.536 59.5168 12.6853 58.9622 12.984C58.4288 13.2613 58.0022 13.6347 57.6822 14.104C57.3835 14.5733 57.2342 15.0747 57.2342 15.608C57.2342 16.184 57.4368 16.664 57.8422 17.048C58.2688 17.4107 58.8875 17.592 59.6982 17.592ZM83.4534 29.848C81.1707 29.848 79.1867 29.4427 77.5014 28.632C75.8161 27.8213 74.5041 26.648 73.5654 25.112C72.6481 23.576 72.1894 21.72 72.1894 19.544C72.1894 17.8373 72.4774 16.2693 73.0534 14.84C73.6507 13.3893 74.4721 12.1413 75.5174 11.096C76.5841 10.0293 77.8001 9.208 79.1654 8.632C80.5521 8.03466 82.0241 7.736 83.5814 7.736C85.1387 7.736 86.6001 8.01333 87.9654 8.568C89.3521 9.12267 90.5681 9.90133 91.6134 10.904C92.6587 11.9067 93.4694 13.0907 94.0454 14.456C94.6427 15.8 94.9414 17.272 94.9414 18.872C94.9414 21.1973 94.4614 23.1813 93.5014 24.824C92.5627 26.4667 91.2294 27.7147 89.5014 28.568C87.7947 29.4213 85.7787 29.848 83.4534 29.848ZM83.1974 21.4C84.4134 21.4 85.3841 21.1013 86.1094 20.504C86.8561 19.8853 87.2294 19.064 87.2294 18.04C87.2294 17.3573 87.0587 16.7707 86.7174 16.28C86.3974 15.768 85.9281 15.3733 85.3094 15.096C84.7121 14.8187 84.0081 14.68 83.1974 14.68C82.3867 14.68 81.6721 14.8187 81.0534 15.096C80.4561 15.3733 79.9867 15.768 79.6454 16.28C79.3254 16.7707 79.1654 17.3573 79.1654 18.04C79.1654 19.064 79.5281 19.8853 80.2534 20.504C81.0001 21.1013 81.9814 21.4 83.1974 21.4ZM109.732 31.096C107.556 31.096 105.615 30.6373 103.908 29.72C102.223 28.8027 100.889 27.5013 99.9082 25.816C98.9482 24.1307 98.4682 22.136 98.4682 19.832C98.4682 17.6347 98.9482 15.7253 99.9082 14.104C100.868 12.4827 102.223 11.224 103.972 10.328C105.743 9.432 107.812 8.984 110.18 8.984C112.484 8.984 114.479 9.4 116.164 10.232C117.871 11.0427 119.193 12.1947 120.132 13.688C121.071 15.16 121.54 16.8773 121.54 18.84C121.54 20.504 121.263 22.0827 120.708 23.576C120.153 25.048 119.353 26.3493 118.308 27.48C117.284 28.6107 116.047 29.496 114.596 30.136C113.145 30.776 111.524 31.096 109.732 31.096ZM110.212 23.928C111.364 23.928 112.281 23.5333 112.964 22.744C113.647 21.9547 113.988 20.9093 113.988 19.608C113.988 18.584 113.679 17.7733 113.06 17.176C112.441 16.5573 111.588 16.248 110.5 16.248C109.732 16.248 109.049 16.4187 108.452 16.76C107.855 17.08 107.385 17.5387 107.044 18.136C106.724 18.7333 106.564 19.4373 106.564 20.248C106.564 21.3573 106.895 22.2533 107.556 22.936C108.239 23.5973 109.124 23.928 110.212 23.928ZM135.555 7.992C138.371 7.992 140.441 8.64267 141.763 9.944C143.107 11.2453 143.779 12.952 143.779 15.064C143.779 16.5147 143.438 17.7733 142.755 18.84C142.094 19.9067 141.187 20.7387 140.035 21.336C138.905 21.912 137.614 22.2 136.163 22.2C135.651 22.2 135.107 22.1573 134.531 22.072C133.955 21.9653 133.358 21.8053 132.739 21.592L133.027 20.696C133.198 21.1653 133.337 21.752 133.443 22.456C133.571 23.1387 133.667 23.8533 133.731 24.6C133.817 25.3253 133.859 25.9973 133.859 26.616C133.859 28.1093 133.497 29.2507 132.771 30.04C132.067 30.8293 131.001 31.224 129.571 31.224C128.483 31.224 127.63 30.968 127.011 30.456C126.414 29.9227 125.987 29.0587 125.731 27.864C125.497 26.6693 125.379 25.08 125.379 23.096C125.379 20.408 125.539 18.1147 125.859 16.216C126.201 14.3173 126.681 12.8027 127.299 11.672C127.918 10.5413 128.931 9.64533 130.339 8.984C131.747 8.32267 133.486 7.992 135.555 7.992ZM134.659 17.592C135.705 17.592 136.569 17.3253 137.251 16.792C137.955 16.2587 138.307 15.5333 138.307 14.616C138.307 14.0187 138.115 13.528 137.731 13.144C137.369 12.7387 136.729 12.536 135.811 12.536C135.107 12.536 134.478 12.6853 133.923 12.984C133.39 13.2613 132.963 13.6347 132.643 14.104C132.345 14.5733 132.195 15.0747 132.195 15.608C132.195 16.184 132.398 16.664 132.803 17.048C133.23 17.4107 133.849 17.592 134.659 17.592ZM155.983 31.288C154.745 31.288 153.743 31.0213 152.975 30.488C152.207 29.9333 151.823 28.952 151.823 27.544C151.823 26.6907 151.983 25.8267 152.303 24.952C152.644 24.0773 153.092 23.2667 153.647 22.52C154.223 21.7733 154.852 21.1653 155.535 20.696L155.407 21.592C153.444 20.7387 151.823 19.896 150.543 19.064C149.284 18.2107 148.345 17.336 147.727 16.44C147.129 15.5227 146.831 14.5627 146.831 13.56C146.831 12.6213 147.023 11.8213 147.407 11.16C147.812 10.4773 148.345 9.95467 149.007 9.592C149.668 9.208 150.372 9.016 151.119 9.016C152.057 9.016 152.921 9.34667 153.711 10.008C154.521 10.648 155.215 11.6187 155.791 12.92C156.388 14.2 156.836 15.8 157.135 17.72H157.263C157.647 15.224 158.116 13.2187 158.671 11.704C159.225 10.1893 159.844 9.09067 160.527 8.408C161.231 7.72533 161.977 7.384 162.767 7.384C163.577 7.384 164.356 7.608 165.103 8.056C165.871 8.504 166.5 9.13333 166.991 9.944C167.481 10.7547 167.727 11.704 167.727 12.792C167.727 14.072 167.364 15.256 166.639 16.344C165.935 17.4107 164.911 18.3813 163.567 19.256C162.244 20.1307 160.644 20.92 158.767 21.624L159.375 21.016C159.695 21.528 159.983 22.1147 160.239 22.776C160.495 23.416 160.697 24.0773 160.847 24.76C160.996 25.4213 161.071 26.04 161.071 26.616C161.071 28.1307 160.601 29.2933 159.663 30.104C158.724 30.8933 157.497 31.288 155.983 31.288ZM187.224 31.192C185.688 31.192 184.461 31 183.544 30.616C182.648 30.2107 181.954 29.592 181.464 28.76C181.016 27.992 180.696 26.9893 180.504 25.752C180.312 24.5147 180.216 22.8187 180.216 20.664C180.216 18.8933 180.28 17.1973 180.408 15.576C180.557 13.9547 180.717 12.696 180.888 11.8C181.186 10.3707 181.656 9.34667 182.296 8.728C182.957 8.10933 183.789 7.8 184.792 7.8C185.858 7.8 186.69 8.10933 187.288 8.728C187.885 9.34667 188.312 10.168 188.568 11.192C188.824 12.216 188.952 13.3573 188.952 14.616C188.952 16.216 188.76 17.8373 188.376 19.48C188.013 21.1013 187.533 22.6053 186.936 23.992L186.232 24.152C186.829 23.4267 187.512 22.8293 188.28 22.36C189.069 21.8907 189.901 21.5387 190.776 21.304C191.65 21.048 192.525 20.92 193.4 20.92C194.68 20.92 195.661 21.2507 196.344 21.912C197.026 22.552 197.368 23.4587 197.368 24.632C197.368 25.72 197.048 26.7227 196.408 27.64C195.768 28.536 194.936 29.2507 193.912 29.784C193.357 30.0827 192.706 30.3387 191.96 30.552C191.234 30.7653 190.466 30.9253 189.656 31.032C188.845 31.1387 188.034 31.192 187.224 31.192ZM211.532 29.848C209.249 29.848 207.265 29.4427 205.58 28.632C203.895 27.8213 202.583 26.648 201.644 25.112C200.727 23.576 200.268 21.72 200.268 19.544C200.268 17.8373 200.556 16.2693 201.132 14.84C201.729 13.3893 202.551 12.1413 203.596 11.096C204.663 10.0293 205.879 9.208 207.244 8.632C208.631 8.03466 210.103 7.736 211.66 7.736C213.217 7.736 214.679 8.01333 216.044 8.568C217.431 9.12267 218.647 9.90133 219.692 10.904C220.737 11.9067 221.548 13.0907 222.124 14.456C222.721 15.8 223.02 17.272 223.02 18.872C223.02 21.1973 222.54 23.1813 221.58 24.824C220.641 26.4667 219.308 27.7147 217.58 28.568C215.873 29.4213 213.857 29.848 211.532 29.848ZM211.276 21.4C212.492 21.4 213.463 21.1013 214.188 20.504C214.935 19.8853 215.308 19.064 215.308 18.04C215.308 17.3573 215.137 16.7707 214.796 16.28C214.476 15.768 214.007 15.3733 213.388 15.096C212.791 14.8187 212.087 14.68 211.276 14.68C210.465 14.68 209.751 14.8187 209.132 15.096C208.535 15.3733 208.065 15.768 207.724 16.28C207.404 16.7707 207.244 17.3573 207.244 18.04C207.244 19.064 207.607 19.8853 208.332 20.504C209.079 21.1013 210.06 21.4 211.276 21.4ZM237.811 31.096C235.635 31.096 233.694 30.6373 231.987 29.72C230.302 28.8027 228.968 27.5013 227.987 25.816C227.027 24.1307 226.547 22.136 226.547 19.832C226.547 17.6347 227.027 15.7253 227.987 14.104C228.947 12.4827 230.302 11.224 232.051 10.328C233.822 9.432 235.891 8.984 238.259 8.984C240.563 8.984 242.558 9.4 244.243 10.232C245.95 11.0427 247.272 12.1947 248.211 13.688C249.15 15.16 249.619 16.8773 249.619 18.84C249.619 20.504 249.342 22.0827 248.787 23.576C248.232 25.048 247.432 26.3493 246.387 27.48C245.363 28.6107 244.126 29.496 242.675 30.136C241.224 30.776 239.603 31.096 237.811 31.096ZM238.291 23.928C239.443 23.928 240.36 23.5333 241.043 22.744C241.726 21.9547 242.067 20.9093 242.067 19.608C242.067 18.584 241.758 17.7733 241.139 17.176C240.52 16.5573 239.667 16.248 238.579 16.248C237.811 16.248 237.128 16.4187 236.531 16.76C235.934 17.08 235.464 17.5387 235.123 18.136C234.803 18.7333 234.643 19.4373 234.643 20.248C234.643 21.3573 234.974 22.2533 235.635 22.936C236.318 23.5973 237.203 23.928 238.291 23.928ZM263.634 7.992C266.45 7.992 268.519 8.64267 269.842 9.944C271.186 11.2453 271.858 12.952 271.858 15.064C271.858 16.5147 271.517 17.7733 270.834 18.84C270.173 19.9067 269.266 20.7387 268.114 21.336C266.983 21.912 265.693 22.2 264.242 22.2C263.73 22.2 263.186 22.1573 262.61 22.072C262.034 21.9653 261.437 21.8053 260.818 21.592L261.106 20.696C261.277 21.1653 261.415 21.752 261.522 22.456C261.65 23.1387 261.746 23.8533 261.81 24.6C261.895 25.3253 261.938 25.9973 261.938 26.616C261.938 28.1093 261.575 29.2507 260.85 30.04C260.146 30.8293 259.079 31.224 257.65 31.224C256.562 31.224 255.709 30.968 255.09 30.456C254.493 29.9227 254.066 29.0587 253.81 27.864C253.575 26.6693 253.458 25.08 253.458 23.096C253.458 20.408 253.618 18.1147 253.938 16.216C254.279 14.3173 254.759 12.8027 255.378 11.672C255.997 10.5413 257.01 9.64533 258.418 8.984C259.826 8.32267 261.565 7.992 263.634 7.992ZM262.738 17.592C263.783 17.592 264.647 17.3253 265.33 16.792C266.034 16.2587 266.386 15.5333 266.386 14.616C266.386 14.0187 266.194 13.528 265.81 13.144C265.447 12.7387 264.807 12.536 263.89 12.536C263.186 12.536 262.557 12.6853 262.002 12.984C261.469 13.2613 261.042 13.6347 260.722 14.104C260.423 14.5733 260.274 15.0747 260.274 15.608C260.274 16.184 260.477 16.664 260.882 17.048C261.309 17.4107 261.927 17.592 262.738 17.592ZM282.685 30.456C281.789 30.456 280.893 30.3813 279.997 30.232C279.101 30.0613 278.28 29.7947 277.533 29.432C276.787 29.048 276.189 28.536 275.741 27.896C275.293 27.256 275.069 26.456 275.069 25.496C275.069 24.4933 275.357 23.7467 275.933 23.256C276.509 22.744 277.437 22.488 278.717 22.488C279.229 22.488 279.763 22.552 280.317 22.68C280.872 22.7867 281.405 22.904 281.917 23.032C282.451 23.1387 282.899 23.192 283.261 23.192C283.752 23.192 284.115 23.1067 284.349 22.936C284.605 22.7653 284.733 22.5307 284.733 22.232C284.733 21.9973 284.648 21.7947 284.477 21.624C284.328 21.4533 284.072 21.304 283.709 21.176C283.347 21.0267 282.856 20.8987 282.237 20.792C280.808 20.5147 279.656 20.152 278.781 19.704C277.928 19.256 277.299 18.68 276.893 17.976C276.509 17.2507 276.317 16.376 276.317 15.352C276.317 13.9867 276.637 12.8453 277.277 11.928C277.939 10.9893 278.781 10.2427 279.805 9.688C280.829 9.112 281.917 8.70667 283.069 8.472C284.221 8.216 285.309 8.088 286.333 8.088C288.339 8.088 289.928 8.472 291.101 9.24C292.296 9.98667 292.893 11.0213 292.893 12.344C292.893 13.3467 292.541 14.168 291.837 14.808C291.133 15.448 290.045 15.768 288.573 15.768C288.04 15.768 287.432 15.7253 286.749 15.64C286.088 15.5333 285.448 15.4267 284.829 15.32C284.211 15.2133 283.72 15.16 283.357 15.16C282.952 15.16 282.653 15.224 282.461 15.352C282.269 15.4587 282.173 15.6293 282.173 15.864C282.173 16.1413 282.355 16.3973 282.717 16.632C283.08 16.8667 283.805 17.112 284.893 17.368C286.643 17.7733 288.019 18.2747 289.021 18.872C290.045 19.4693 290.771 20.1627 291.197 20.952C291.645 21.72 291.869 22.6053 291.869 23.608C291.869 24.9733 291.475 26.168 290.685 27.192C289.917 28.216 288.84 29.016 287.453 29.592C286.088 30.168 284.499 30.456 282.685 30.456Z" fill="white"/>
</g>
<defs>
<filter id="filter0_d_261_28" x="50.418" y="7.38379" width="245.476" height="23.9043" filterUnits="userSpaceOnUse" color-interpolation-filters="sRGB">
<feFlood flood-opacity="0" result="BackgroundImageFix"/>
<feColorMatrix in="SourceAlpha" type="matrix" values="0 0 0 0 0 0 0 0 0 0 0 0 0 0 0 0 0 0 127 0" result="hardAlpha"/>
<feOffset dx="3"/>
<feComposite in2="hardAlpha" operator="out"/>
<feColorMatrix type="matrix" values="0 0 0 0 0.0431373 0 0 0 0 0.239216 0 0 0 0 0.164706 0 0 0 1 0"/>
<feBlend mode="normal" in2="BackgroundImageFix" result="effect1_dropShadow_261_28"/>
<feBlend mode="normal" in="SourceGraphic" in2="effect1_dropShadow_261_28" result="shape"/>
</filter>
</defs>
</svg>
