<svg width="32" height="32" viewBox="0 0 32 32" fill="none" xmlns="http://www.w3.org/2000/svg">
<path d="M13.4006 27.6668C23.3669 29.9667 29.5 28.4334 29.5 24.6002C29.5 21.5337 27.4556 20.767 26.4334 20.767M13.4006 27.6668C20.4916 26.843 25.3917 23.7496 26.4334 20.767M13.4006 27.6668C11.3562 28.4334 5.27425 28.1268 3.43432 26.9001C1.13441 25.3669 3.43432 20.767 6.50087 20.767M26.4334 20.767C26.9445 17.956 26.4334 15.4014 24.1336 15.4006C24.9002 12.334 21.067 9.26822 20.3004 10.8015M6.50087 20.767C4.20098 18.4679 7.26753 15.4013 8.8008 15.4013C6.96087 11.1083 12.634 9.26806 13.4006 3.13525C15.445 2.87971 19.6871 4.05519 20.3004 10.8015M6.50087 20.767C7.30129 20.767 8.62405 20.6103 10.2101 20.3242M20.3004 10.8015C19.8791 11.6441 16.9112 12.9497 14.0683 13.955M14.1673 19.4598C15.4745 19.1274 16.8153 18.7399 18.0965 18.3071M11 23C11 22.5527 21.7666 21.9432 21 23C20.2334 24.0568 18 24.75 16 24.75C13.5468 24.75 11 23.7666 11 23ZM11.8675 13.1013C14.934 13.1013 14.934 16.1679 14.934 16.9345C14.934 17.7012 14.1674 20.7677 11.8675 20.7677C9.56757 20.7677 8.80093 18.4678 8.80093 16.9345C8.80093 15.4013 9.56757 13.1013 11.8675 13.1013ZM21.0669 20.7676C18.0004 20.7676 18.0004 17.7011 18.0004 16.9344C18.0004 16.1678 18.767 13.1012 21.0669 13.1012C23.3668 13.1012 24.1335 15.4011 24.1335 16.9344C24.1335 18.4677 23.3668 20.7676 21.0669 20.7676Z" stroke="#6F704F" stroke-width="1.6" stroke-linecap="round" stroke-linejoin="round"/>
<path d="M11.3999 17.1423C11.3999 16.342 12.1199 16.2621 12.1199 17.1421M11.3999 17.1423C11.3999 18.1022 12.1199 18.0222 12.1199 17.1421M11.3999 17.1423L12.1199 17.1421" stroke="#6F704F" stroke-width="1.6" stroke-linecap="round" stroke-linejoin="round"/>
<path d="M21.3999 17.3316C21.3999 18.1799 20.6799 18.2646 20.6799 17.3318M21.3999 17.3316C21.3999 16.3142 20.6799 16.399 20.6799 17.3318M21.3999 17.3316L20.6799 17.3318" stroke="#6F704F" stroke-width="1.6" stroke-linecap="round" stroke-linejoin="round"/>
</svg>
