<svg width="296" height="38" viewBox="0 0 296 38" fill="none" xmlns="http://www.w3.org/2000/svg">
<path fill-rule="evenodd" clip-rule="evenodd" d="M18.1874 36.233C32.073 39.4617 40.618 37.3092 40.618 31.928C40.618 27.6231 37.7696 26.5468 36.3455 26.5468C37.0576 22.6006 36.3455 19.0143 33.1411 19.0132C34.2093 14.7082 28.8686 10.4043 27.8005 12.5568C26.946 3.086 21.0357 1.43581 18.1874 1.79455C17.6919 5.78839 15.7254 8.48547 14.0151 10.8311C12.0386 13.5418 10.4043 15.7832 11.7786 19.0142C9.6424 19.0142 5.3699 23.3192 8.57425 26.5468C4.30175 26.5468 1.09738 33.0043 4.30175 35.1568C6.86525 36.8787 15.339 37.3092 18.1874 36.233Z" fill="#0B3D2A"/>
<path d="M10.9287 27.2501L19.9287 31.7501L29.5716 29.8215V20.1786L27.643 13.7501L23.7859 12.4644L10.9287 14.3929V27.2501Z" fill="white"/>
<path fill-rule="evenodd" clip-rule="evenodd" d="M37.618 30.428C37.618 35.8092 29.073 37.9617 15.1874 34.733C12.339 35.8092 3.86525 35.3787 1.30175 33.6568C-1.90262 31.5043 1.30175 25.0468 5.57425 25.0468C2.3699 21.8192 6.6424 17.5142 8.77865 17.5142C7.40432 14.2832 9.03857 12.0418 11.0151 9.33106C12.7254 6.98547 14.6919 4.28839 15.1874 0.294552C18.0357 -0.0641947 23.946 1.586 24.8005 11.0568C25.8686 8.90429 31.2093 13.2082 30.1411 17.5132C33.3455 17.5143 34.0576 21.1006 33.3455 25.0468C34.7696 25.0468 37.618 26.1231 37.618 30.428ZM17.7978 18.8567C17.7978 20.6439 16.3491 22.0926 14.5619 22.0926C12.7747 22.0926 11.3259 20.6439 11.3259 18.8567C11.3259 17.0695 12.7747 15.6207 14.5619 15.6207C16.3491 15.6207 17.7978 17.0695 17.7978 18.8567ZM23.4608 20.0702C25.2479 20.0702 26.6967 18.6214 26.6967 16.8342C26.6967 15.0471 25.2479 13.5983 23.4608 13.5983C21.6736 13.5983 20.2248 15.0471 20.2248 16.8342C20.2248 18.6214 21.6736 20.0702 23.4608 20.0702Z" fill="#BA643D"/>
<circle cx="14.1573" cy="19.6656" r="1.21348" fill="#0B3D2A"/>
<circle cx="24.2696" cy="16.8346" r="1.21348" fill="#0B3D2A"/>
<path fill-rule="evenodd" clip-rule="evenodd" d="M23.2137 23.4955C23.7791 23.1357 24.5292 23.3024 24.889 23.8678C25.5229 24.864 25.4179 26.046 25.0684 26.9821C24.7102 27.9415 24.0278 28.8571 23.1495 29.5119C22.2642 30.1718 21.1123 30.613 19.8385 30.4754C18.549 30.3361 17.3174 29.6238 16.2519 28.3214C15.8275 27.8027 15.9039 27.0382 16.4226 26.6138C16.9413 26.1894 17.7059 26.2659 18.1302 26.7846C18.8849 27.707 19.5747 28.0058 20.0991 28.0625C20.6392 28.1208 21.1938 27.9426 21.6989 27.5661C22.211 27.1843 22.6031 26.6463 22.7948 26.1331C22.9951 25.5965 22.9154 25.287 22.8414 25.1708C22.4816 24.6054 22.6483 23.8553 23.2137 23.4955Z" fill="#0B3D2A"/>
<path d="M285.685 30.4559C284.789 30.4559 283.893 30.3812 282.997 30.2319C282.101 30.0612 281.28 29.7946 280.533 29.4319C279.787 29.0479 279.189 28.5359 278.741 27.8959C278.293 27.2559 278.069 26.4559 278.069 25.4959C278.069 24.4932 278.357 23.7466 278.933 23.2559C279.509 22.7439 280.437 22.4879 281.717 22.4879C282.229 22.4879 282.763 22.5519 283.317 22.6799C283.872 22.7866 284.405 22.9039 284.917 23.0319C285.451 23.1386 285.899 23.1919 286.261 23.1919C286.752 23.1919 287.115 23.1066 287.349 22.9359C287.605 22.7652 287.733 22.5306 287.733 22.2319C287.733 21.9972 287.648 21.7946 287.477 21.6239C287.328 21.4532 287.072 21.3039 286.709 21.1759C286.347 21.0266 285.856 20.8986 285.237 20.7919C283.808 20.5146 282.656 20.1519 281.781 19.7039C280.928 19.2559 280.299 18.6799 279.893 17.9759C279.509 17.2506 279.317 16.3759 279.317 15.3519C279.317 13.9866 279.637 12.8452 280.277 11.9279C280.939 10.9892 281.781 10.2426 282.805 9.68789C283.829 9.11189 284.917 8.70656 286.069 8.47189C287.221 8.21589 288.309 8.08789 289.333 8.08789C291.339 8.08789 292.928 8.47189 294.101 9.23989C295.296 9.98656 295.893 11.0212 295.893 12.3439C295.893 13.3466 295.541 14.1679 294.837 14.8079C294.133 15.4479 293.045 15.7679 291.573 15.7679C291.04 15.7679 290.432 15.7252 289.749 15.6399C289.088 15.5332 288.448 15.4266 287.829 15.3199C287.211 15.2132 286.72 15.1599 286.357 15.1599C285.952 15.1599 285.653 15.2239 285.461 15.3519C285.269 15.4586 285.173 15.6292 285.173 15.8639C285.173 16.1412 285.355 16.3972 285.717 16.6319C286.08 16.8666 286.805 17.1119 287.893 17.3679C289.643 17.7732 291.019 18.2746 292.021 18.8719C293.045 19.4692 293.771 20.1626 294.197 20.9519C294.645 21.7199 294.869 22.6052 294.869 23.6079C294.869 24.9732 294.475 26.1679 293.685 27.1919C292.917 28.2159 291.84 29.0159 290.453 29.5919C289.088 30.1679 287.499 30.4559 285.685 30.4559Z" fill="#0B3D2A"/>
<path d="M266.634 7.9917C269.45 7.9917 271.519 8.64237 272.842 9.9437C274.186 11.245 274.858 12.9517 274.858 15.0637C274.858 16.5144 274.517 17.773 273.834 18.8397C273.173 19.9064 272.266 20.7384 271.114 21.3357C269.983 21.9117 268.693 22.1997 267.242 22.1997C266.73 22.1997 266.186 22.157 265.61 22.0717C265.034 21.965 264.437 21.805 263.818 21.5917L264.106 20.6957C264.277 21.165 264.415 21.7517 264.522 22.4557C264.65 23.1384 264.746 23.853 264.81 24.5997C264.895 25.325 264.938 25.997 264.938 26.6157C264.938 28.109 264.575 29.2504 263.85 30.0397C263.146 30.829 262.079 31.2237 260.65 31.2237C259.562 31.2237 258.709 30.9677 258.09 30.4557C257.493 29.9224 257.066 29.0584 256.81 27.8637C256.575 26.669 256.458 25.0797 256.458 23.0957C256.458 20.4077 256.618 18.1144 256.938 16.2157C257.279 14.317 257.759 12.8024 258.378 11.6717C258.997 10.541 260.01 9.64503 261.418 8.9837C262.826 8.32237 264.565 7.9917 266.634 7.9917ZM265.738 17.5917C266.783 17.5917 267.647 17.325 268.33 16.7917C269.034 16.2584 269.386 15.533 269.386 14.6157C269.386 14.0184 269.194 13.5277 268.81 13.1437C268.447 12.7384 267.807 12.5357 266.89 12.5357C266.186 12.5357 265.557 12.685 265.002 12.9837C264.469 13.261 264.042 13.6344 263.722 14.1037C263.423 14.573 263.274 15.0744 263.274 15.6077C263.274 16.1837 263.477 16.6637 263.882 17.0477C264.309 17.4104 264.927 17.5917 265.738 17.5917Z" fill="#0B3D2A"/>
<path d="M240.811 31.0959C238.635 31.0959 236.694 30.6372 234.987 29.7199C233.302 28.8026 231.968 27.5012 230.987 25.8159C230.027 24.1306 229.547 22.1359 229.547 19.8319C229.547 17.6346 230.027 15.7252 230.987 14.1039C231.947 12.4826 233.302 11.2239 235.051 10.3279C236.822 9.43189 238.891 8.98389 241.259 8.98389C243.563 8.98389 245.558 9.39989 247.243 10.2319C248.95 11.0426 250.272 12.1946 251.211 13.6879C252.15 15.1599 252.619 16.8772 252.619 18.8399C252.619 20.5039 252.342 22.0826 251.787 23.5759C251.232 25.0479 250.432 26.3492 249.387 27.4799C248.363 28.6106 247.126 29.4959 245.675 30.1359C244.224 30.7759 242.603 31.0959 240.811 31.0959ZM241.291 23.9279C242.443 23.9279 243.36 23.5332 244.043 22.7439C244.726 21.9546 245.067 20.9092 245.067 19.6079C245.067 18.5839 244.758 17.7732 244.139 17.1759C243.52 16.5572 242.667 16.2479 241.579 16.2479C240.811 16.2479 240.128 16.4186 239.531 16.7599C238.934 17.0799 238.464 17.5386 238.123 18.1359C237.803 18.7332 237.643 19.4372 237.643 20.2479C237.643 21.3572 237.974 22.2532 238.635 22.9359C239.318 23.5972 240.203 23.9279 241.291 23.9279Z" fill="#0B3D2A"/>
<path d="M214.532 29.8478C212.249 29.8478 210.265 29.4425 208.58 28.6318C206.895 27.8212 205.583 26.6478 204.644 25.1118C203.727 23.5758 203.268 21.7198 203.268 19.5438C203.268 17.8372 203.556 16.2692 204.132 14.8398C204.729 13.3892 205.551 12.1412 206.596 11.0958C207.663 10.0292 208.879 9.20784 210.244 8.63184C211.631 8.03451 213.103 7.73584 214.66 7.73584C216.217 7.73584 217.679 8.01317 219.044 8.56784C220.431 9.12251 221.647 9.90117 222.692 10.9038C223.737 11.9065 224.548 13.0905 225.124 14.4558C225.721 15.7998 226.02 17.2718 226.02 18.8718C226.02 21.1972 225.54 23.1812 224.58 24.8238C223.641 26.4665 222.308 27.7145 220.58 28.5678C218.873 29.4212 216.857 29.8478 214.532 29.8478ZM214.276 21.3998C215.492 21.3998 216.463 21.1012 217.188 20.5038C217.935 19.8852 218.308 19.0638 218.308 18.0398C218.308 17.3572 218.137 16.7705 217.796 16.2798C217.476 15.7678 217.007 15.3732 216.388 15.0958C215.791 14.8185 215.087 14.6798 214.276 14.6798C213.465 14.6798 212.751 14.8185 212.132 15.0958C211.535 15.3732 211.065 15.7678 210.724 16.2798C210.404 16.7705 210.244 17.3572 210.244 18.0398C210.244 19.0638 210.607 19.8852 211.332 20.5038C212.079 21.1012 213.06 21.3998 214.276 21.3998Z" fill="#0B3D2A"/>
<path d="M190.223 31.1918C188.687 31.1918 187.461 30.9998 186.543 30.6158C185.647 30.2105 184.954 29.5918 184.463 28.7598C184.015 27.9918 183.695 26.9891 183.503 25.7518C183.311 24.5145 183.215 22.8185 183.215 20.6638C183.215 18.8931 183.279 17.1971 183.407 15.5758C183.557 13.9545 183.717 12.6958 183.887 11.7998C184.186 10.3705 184.655 9.34647 185.295 8.7278C185.957 8.10914 186.789 7.7998 187.791 7.7998C188.858 7.7998 189.69 8.10914 190.287 8.7278C190.885 9.34647 191.311 10.1678 191.567 11.1918C191.823 12.2158 191.951 13.3571 191.951 14.6158C191.951 16.2158 191.759 17.8371 191.375 19.4798C191.013 21.1011 190.533 22.6051 189.935 23.9918L189.231 24.1518C189.829 23.4265 190.511 22.8291 191.279 22.3598C192.069 21.8905 192.901 21.5385 193.775 21.3038C194.65 21.0478 195.525 20.9198 196.399 20.9198C197.679 20.9198 198.661 21.2505 199.343 21.9118C200.026 22.5518 200.367 23.4585 200.367 24.6318C200.367 25.7198 200.047 26.7225 199.407 27.6398C198.767 28.5358 197.935 29.2505 196.911 29.7838C196.357 30.0825 195.706 30.3385 194.959 30.5518C194.234 30.7651 193.466 30.9251 192.655 31.0318C191.845 31.1385 191.034 31.1918 190.223 31.1918Z" fill="#0B3D2A"/>
<path d="M158.983 31.2878C157.745 31.2878 156.743 31.0211 155.975 30.4878C155.207 29.9331 154.823 28.9518 154.823 27.5438C154.823 26.6905 154.983 25.8265 155.303 24.9518C155.644 24.0771 156.092 23.2665 156.647 22.5198C157.223 21.7731 157.852 21.1651 158.535 20.6958L158.407 21.5918C156.444 20.7385 154.823 19.8958 153.543 19.0638C152.284 18.2105 151.345 17.3358 150.727 16.4398C150.129 15.5225 149.831 14.5625 149.831 13.5598C149.831 12.6211 150.023 11.8211 150.407 11.1598C150.812 10.4771 151.345 9.95446 152.007 9.59179C152.668 9.20779 153.372 9.01579 154.119 9.01579C155.057 9.01579 155.921 9.34646 156.711 10.0078C157.521 10.6478 158.215 11.6185 158.791 12.9198C159.388 14.1998 159.836 15.7998 160.135 17.7198H160.263C160.647 15.2238 161.116 13.2185 161.671 11.7038C162.225 10.1891 162.844 9.09046 163.527 8.40779C164.231 7.72512 164.977 7.38379 165.767 7.38379C166.577 7.38379 167.356 7.60779 168.103 8.05579C168.871 8.50379 169.5 9.13312 169.991 9.94379C170.481 10.7545 170.727 11.7038 170.727 12.7918C170.727 14.0718 170.364 15.2558 169.639 16.3438C168.935 17.4105 167.911 18.3811 166.567 19.2558C165.244 20.1305 163.644 20.9198 161.767 21.6238L162.375 21.0158C162.695 21.5278 162.983 22.1145 163.239 22.7758C163.495 23.4158 163.697 24.0771 163.847 24.7598C163.996 25.4211 164.071 26.0398 164.071 26.6158C164.071 28.1305 163.601 29.2931 162.663 30.1038C161.724 30.8931 160.497 31.2878 158.983 31.2878Z" fill="#0B3D2A"/>
<path d="M138.555 7.9917C141.371 7.9917 143.441 8.64237 144.763 9.9437C146.107 11.245 146.779 12.9517 146.779 15.0637C146.779 16.5144 146.438 17.773 145.755 18.8397C145.094 19.9064 144.187 20.7384 143.035 21.3357C141.905 21.9117 140.614 22.1997 139.163 22.1997C138.651 22.1997 138.107 22.157 137.531 22.0717C136.955 21.965 136.358 21.805 135.739 21.5917L136.027 20.6957C136.198 21.165 136.337 21.7517 136.443 22.4557C136.571 23.1384 136.667 23.853 136.731 24.5997C136.817 25.325 136.859 25.997 136.859 26.6157C136.859 28.109 136.497 29.2504 135.771 30.0397C135.067 30.829 134.001 31.2237 132.571 31.2237C131.483 31.2237 130.63 30.9677 130.011 30.4557C129.414 29.9224 128.987 29.0584 128.731 27.8637C128.497 26.669 128.379 25.0797 128.379 23.0957C128.379 20.4077 128.539 18.1144 128.859 16.2157C129.201 14.317 129.681 12.8024 130.299 11.6717C130.918 10.541 131.931 9.64503 133.339 8.9837C134.747 8.32237 136.486 7.9917 138.555 7.9917ZM137.659 17.5917C138.705 17.5917 139.569 17.325 140.251 16.7917C140.955 16.2584 141.307 15.533 141.307 14.6157C141.307 14.0184 141.115 13.5277 140.731 13.1437C140.369 12.7384 139.729 12.5357 138.811 12.5357C138.107 12.5357 137.478 12.685 136.923 12.9837C136.39 13.261 135.963 13.6344 135.643 14.1037C135.345 14.573 135.195 15.0744 135.195 15.6077C135.195 16.1837 135.398 16.6637 135.803 17.0477C136.23 17.4104 136.849 17.5917 137.659 17.5917Z" fill="#0B3D2A"/>
<path d="M112.732 31.0959C110.556 31.0959 108.614 30.6372 106.908 29.7199C105.222 28.8026 103.889 27.5012 102.908 25.8159C101.948 24.1306 101.468 22.1359 101.468 19.8319C101.468 17.6346 101.948 15.7252 102.908 14.1039C103.868 12.4826 105.222 11.2239 106.972 10.3279C108.742 9.43189 110.812 8.98389 113.18 8.98389C115.484 8.98389 117.478 9.39989 119.164 10.2319C120.87 11.0426 122.193 12.1946 123.132 13.6879C124.07 15.1599 124.54 16.8772 124.54 18.8399C124.54 20.5039 124.262 22.0826 123.708 23.5759C123.153 25.0479 122.353 26.3492 121.308 27.4799C120.284 28.6106 119.046 29.4959 117.596 30.1359C116.145 30.7759 114.524 31.0959 112.732 31.0959ZM113.212 23.9279C114.364 23.9279 115.281 23.5332 115.964 22.7439C116.646 21.9546 116.988 20.9092 116.988 19.6079C116.988 18.5839 116.678 17.7732 116.06 17.1759C115.441 16.5572 114.588 16.2479 113.5 16.2479C112.732 16.2479 112.049 16.4186 111.452 16.7599C110.854 17.0799 110.385 17.5386 110.044 18.1359C109.724 18.7332 109.564 19.4372 109.564 20.2479C109.564 21.3572 109.894 22.2532 110.556 22.9359C111.238 23.5972 112.124 23.9279 113.212 23.9279Z" fill="#0B3D2A"/>
<path d="M86.4535 29.8478C84.1708 29.8478 82.1868 29.4425 80.5015 28.6318C78.8161 27.8212 77.5041 26.6478 76.5655 25.1118C75.6481 23.5758 75.1895 21.7198 75.1895 19.5438C75.1895 17.8372 75.4775 16.2692 76.0535 14.8398C76.6508 13.3892 77.4721 12.1412 78.5175 11.0958C79.5841 10.0292 80.8001 9.20784 82.1655 8.63184C83.5521 8.03451 85.0241 7.73584 86.5815 7.73584C88.1388 7.73584 89.6001 8.01317 90.9655 8.56784C92.3521 9.12251 93.5681 9.90117 94.6135 10.9038C95.6588 11.9065 96.4695 13.0905 97.0455 14.4558C97.6428 15.7998 97.9415 17.2718 97.9415 18.8718C97.9415 21.1972 97.4615 23.1812 96.5015 24.8238C95.5628 26.4665 94.2295 27.7145 92.5015 28.5678C90.7948 29.4212 88.7788 29.8478 86.4535 29.8478ZM86.1975 21.3998C87.4135 21.3998 88.3841 21.1012 89.1095 20.5038C89.8561 19.8852 90.2295 19.0638 90.2295 18.0398C90.2295 17.3572 90.0588 16.7705 89.7175 16.2798C89.3975 15.7678 88.9281 15.3732 88.3095 15.0958C87.7121 14.8185 87.0081 14.6798 86.1975 14.6798C85.3868 14.6798 84.6721 14.8185 84.0535 15.0958C83.4561 15.3732 82.9868 15.7678 82.6455 16.2798C82.3255 16.7705 82.1655 17.3572 82.1655 18.0398C82.1655 19.0638 82.5281 19.8852 83.2535 20.5038C84.0001 21.1012 84.9815 21.3998 86.1975 21.3998Z" fill="#0B3D2A"/>
<path d="M63.594 7.9917C66.41 7.9917 68.4793 8.64237 69.802 9.9437C71.146 11.245 71.818 12.9517 71.818 15.0637C71.818 16.5144 71.4766 17.773 70.794 18.8397C70.1326 19.9064 69.226 20.7384 68.074 21.3357C66.9433 21.9117 65.6526 22.1997 64.202 22.1997C63.69 22.1997 63.146 22.157 62.57 22.0717C61.994 21.965 61.3966 21.805 60.778 21.5917L61.066 20.6957C61.2366 21.165 61.3753 21.7517 61.482 22.4557C61.61 23.1384 61.706 23.853 61.77 24.5997C61.8553 25.325 61.898 25.997 61.898 26.6157C61.898 28.109 61.5353 29.2504 60.81 30.0397C60.106 30.829 59.0393 31.2237 57.61 31.2237C56.522 31.2237 55.6686 30.9677 55.05 30.4557C54.4526 29.9224 54.026 29.0584 53.77 27.8637C53.5353 26.669 53.418 25.0797 53.418 23.0957C53.418 20.4077 53.578 18.1144 53.898 16.2157C54.2393 14.317 54.7193 12.8024 55.338 11.6717C55.9566 10.541 56.97 9.64503 58.378 8.9837C59.786 8.32237 61.5246 7.9917 63.594 7.9917ZM62.698 17.5917C63.7433 17.5917 64.6073 17.325 65.29 16.7917C65.994 16.2584 66.346 15.533 66.346 14.6157C66.346 14.0184 66.154 13.5277 65.77 13.1437C65.4073 12.7384 64.7673 12.5357 63.85 12.5357C63.146 12.5357 62.5166 12.685 61.962 12.9837C61.4286 13.261 61.002 13.6344 60.682 14.1037C60.3833 14.573 60.234 15.0744 60.234 15.6077C60.234 16.1837 60.4366 16.6637 60.842 17.0477C61.2686 17.4104 61.8873 17.5917 62.698 17.5917Z" fill="#0B3D2A"/>
<path d="M282.685 30.4559C281.789 30.4559 280.893 30.3812 279.997 30.2319C279.101 30.0612 278.28 29.7946 277.533 29.4319C276.787 29.0479 276.189 28.5359 275.741 27.8959C275.293 27.2559 275.069 26.4559 275.069 25.4959C275.069 24.4932 275.357 23.7466 275.933 23.2559C276.509 22.7439 277.437 22.4879 278.717 22.4879C279.229 22.4879 279.763 22.5519 280.317 22.6799C280.872 22.7866 281.405 22.9039 281.917 23.0319C282.451 23.1386 282.899 23.1919 283.261 23.1919C283.752 23.1919 284.115 23.1066 284.349 22.9359C284.605 22.7652 284.733 22.5306 284.733 22.2319C284.733 21.9972 284.648 21.7946 284.477 21.6239C284.328 21.4532 284.072 21.3039 283.709 21.1759C283.347 21.0266 282.856 20.8986 282.237 20.7919C280.808 20.5146 279.656 20.1519 278.781 19.7039C277.928 19.2559 277.299 18.6799 276.893 17.9759C276.509 17.2506 276.317 16.3759 276.317 15.3519C276.317 13.9866 276.637 12.8452 277.277 11.9279C277.939 10.9892 278.781 10.2426 279.805 9.68789C280.829 9.11189 281.917 8.70656 283.069 8.47189C284.221 8.21589 285.309 8.08789 286.333 8.08789C288.339 8.08789 289.928 8.47189 291.101 9.23989C292.296 9.98656 292.893 11.0212 292.893 12.3439C292.893 13.3466 292.541 14.1679 291.837 14.8079C291.133 15.4479 290.045 15.7679 288.573 15.7679C288.04 15.7679 287.432 15.7252 286.749 15.6399C286.088 15.5332 285.448 15.4266 284.829 15.3199C284.211 15.2132 283.72 15.1599 283.357 15.1599C282.952 15.1599 282.653 15.2239 282.461 15.3519C282.269 15.4586 282.173 15.6292 282.173 15.8639C282.173 16.1412 282.355 16.3972 282.717 16.6319C283.08 16.8666 283.805 17.1119 284.893 17.3679C286.643 17.7732 288.019 18.2746 289.021 18.8719C290.045 19.4692 290.771 20.1626 291.197 20.9519C291.645 21.7199 291.869 22.6052 291.869 23.6079C291.869 24.9732 291.475 26.1679 290.685 27.1919C289.917 28.2159 288.84 29.0159 287.453 29.5919C286.088 30.1679 284.499 30.4559 282.685 30.4559Z" fill="white"/>
<path d="M263.634 7.9917C266.45 7.9917 268.519 8.64237 269.842 9.9437C271.186 11.245 271.858 12.9517 271.858 15.0637C271.858 16.5144 271.517 17.773 270.834 18.8397C270.173 19.9064 269.266 20.7384 268.114 21.3357C266.983 21.9117 265.693 22.1997 264.242 22.1997C263.73 22.1997 263.186 22.157 262.61 22.0717C262.034 21.965 261.437 21.805 260.818 21.5917L261.106 20.6957C261.277 21.165 261.415 21.7517 261.522 22.4557C261.65 23.1384 261.746 23.853 261.81 24.5997C261.895 25.325 261.938 25.997 261.938 26.6157C261.938 28.109 261.575 29.2504 260.85 30.0397C260.146 30.829 259.079 31.2237 257.65 31.2237C256.562 31.2237 255.709 30.9677 255.09 30.4557C254.493 29.9224 254.066 29.0584 253.81 27.8637C253.575 26.669 253.458 25.0797 253.458 23.0957C253.458 20.4077 253.618 18.1144 253.938 16.2157C254.279 14.317 254.759 12.8024 255.378 11.6717C255.997 10.541 257.01 9.64503 258.418 8.9837C259.826 8.32237 261.565 7.9917 263.634 7.9917ZM262.738 17.5917C263.783 17.5917 264.647 17.325 265.33 16.7917C266.034 16.2584 266.386 15.533 266.386 14.6157C266.386 14.0184 266.194 13.5277 265.81 13.1437C265.447 12.7384 264.807 12.5357 263.89 12.5357C263.186 12.5357 262.557 12.685 262.002 12.9837C261.469 13.261 261.042 13.6344 260.722 14.1037C260.423 14.573 260.274 15.0744 260.274 15.6077C260.274 16.1837 260.477 16.6637 260.882 17.0477C261.309 17.4104 261.927 17.5917 262.738 17.5917Z" fill="white"/>
<path d="M237.811 31.0959C235.635 31.0959 233.694 30.6372 231.987 29.7199C230.302 28.8026 228.968 27.5012 227.987 25.8159C227.027 24.1306 226.547 22.1359 226.547 19.8319C226.547 17.6346 227.027 15.7252 227.987 14.1039C228.947 12.4826 230.302 11.2239 232.051 10.3279C233.822 9.43189 235.891 8.98389 238.259 8.98389C240.563 8.98389 242.558 9.39989 244.243 10.2319C245.95 11.0426 247.272 12.1946 248.211 13.6879C249.15 15.1599 249.619 16.8772 249.619 18.8399C249.619 20.5039 249.342 22.0826 248.787 23.5759C248.232 25.0479 247.432 26.3492 246.387 27.4799C245.363 28.6106 244.126 29.4959 242.675 30.1359C241.224 30.7759 239.603 31.0959 237.811 31.0959ZM238.291 23.9279C239.443 23.9279 240.36 23.5332 241.043 22.7439C241.726 21.9546 242.067 20.9092 242.067 19.6079C242.067 18.5839 241.758 17.7732 241.139 17.1759C240.52 16.5572 239.667 16.2479 238.579 16.2479C237.811 16.2479 237.128 16.4186 236.531 16.7599C235.934 17.0799 235.464 17.5386 235.123 18.1359C234.803 18.7332 234.643 19.4372 234.643 20.2479C234.643 21.3572 234.974 22.2532 235.635 22.9359C236.318 23.5972 237.203 23.9279 238.291 23.9279Z" fill="white"/>
<path d="M211.532 29.8478C209.249 29.8478 207.265 29.4425 205.58 28.6318C203.895 27.8212 202.583 26.6478 201.644 25.1118C200.727 23.5758 200.268 21.7198 200.268 19.5438C200.268 17.8372 200.556 16.2692 201.132 14.8398C201.729 13.3892 202.551 12.1412 203.596 11.0958C204.663 10.0292 205.879 9.20784 207.244 8.63184C208.631 8.03451 210.103 7.73584 211.66 7.73584C213.217 7.73584 214.679 8.01317 216.044 8.56784C217.431 9.12251 218.647 9.90117 219.692 10.9038C220.737 11.9065 221.548 13.0905 222.124 14.4558C222.721 15.7998 223.02 17.2718 223.02 18.8718C223.02 21.1972 222.54 23.1812 221.58 24.8238C220.641 26.4665 219.308 27.7145 217.58 28.5678C215.873 29.4212 213.857 29.8478 211.532 29.8478ZM211.276 21.3998C212.492 21.3998 213.463 21.1012 214.188 20.5038C214.935 19.8852 215.308 19.0638 215.308 18.0398C215.308 17.3572 215.137 16.7705 214.796 16.2798C214.476 15.7678 214.007 15.3732 213.388 15.0958C212.791 14.8185 212.087 14.6798 211.276 14.6798C210.465 14.6798 209.751 14.8185 209.132 15.0958C208.535 15.3732 208.065 15.7678 207.724 16.2798C207.404 16.7705 207.244 17.3572 207.244 18.0398C207.244 19.0638 207.607 19.8852 208.332 20.5038C209.079 21.1012 210.06 21.3998 211.276 21.3998Z" fill="white"/>
<path d="M187.223 31.1918C185.687 31.1918 184.461 30.9998 183.543 30.6158C182.647 30.2105 181.954 29.5918 181.463 28.7598C181.015 27.9918 180.695 26.9891 180.503 25.7518C180.311 24.5145 180.215 22.8185 180.215 20.6638C180.215 18.8931 180.279 17.1971 180.407 15.5758C180.557 13.9545 180.717 12.6958 180.887 11.7998C181.186 10.3705 181.655 9.34647 182.295 8.7278C182.957 8.10914 183.789 7.7998 184.791 7.7998C185.858 7.7998 186.69 8.10914 187.287 8.7278C187.885 9.34647 188.311 10.1678 188.567 11.1918C188.823 12.2158 188.951 13.3571 188.951 14.6158C188.951 16.2158 188.759 17.8371 188.375 19.4798C188.013 21.1011 187.533 22.6051 186.935 23.9918L186.231 24.1518C186.829 23.4265 187.511 22.8291 188.279 22.3598C189.069 21.8905 189.901 21.5385 190.775 21.3038C191.65 21.0478 192.525 20.9198 193.399 20.9198C194.679 20.9198 195.661 21.2505 196.343 21.9118C197.026 22.5518 197.367 23.4585 197.367 24.6318C197.367 25.7198 197.047 26.7225 196.407 27.6398C195.767 28.5358 194.935 29.2505 193.911 29.7838C193.357 30.0825 192.706 30.3385 191.959 30.5518C191.234 30.7651 190.466 30.9251 189.655 31.0318C188.845 31.1385 188.034 31.1918 187.223 31.1918Z" fill="white"/>
<path d="M155.983 31.2878C154.745 31.2878 153.743 31.0211 152.975 30.4878C152.207 29.9331 151.823 28.9518 151.823 27.5438C151.823 26.6905 151.983 25.8265 152.303 24.9518C152.644 24.0771 153.092 23.2665 153.647 22.5198C154.223 21.7731 154.852 21.1651 155.535 20.6958L155.407 21.5918C153.444 20.7385 151.823 19.8958 150.543 19.0638C149.284 18.2105 148.345 17.3358 147.727 16.4398C147.129 15.5225 146.831 14.5625 146.831 13.5598C146.831 12.6211 147.023 11.8211 147.407 11.1598C147.812 10.4771 148.345 9.95446 149.007 9.59179C149.668 9.20779 150.372 9.01579 151.119 9.01579C152.057 9.01579 152.921 9.34646 153.711 10.0078C154.521 10.6478 155.215 11.6185 155.791 12.9198C156.388 14.1998 156.836 15.7998 157.135 17.7198H157.263C157.647 15.2238 158.116 13.2185 158.671 11.7038C159.225 10.1891 159.844 9.09046 160.527 8.40779C161.231 7.72512 161.977 7.38379 162.767 7.38379C163.577 7.38379 164.356 7.60779 165.103 8.05579C165.871 8.50379 166.5 9.13312 166.991 9.94379C167.481 10.7545 167.727 11.7038 167.727 12.7918C167.727 14.0718 167.364 15.2558 166.639 16.3438C165.935 17.4105 164.911 18.3811 163.567 19.2558C162.244 20.1305 160.644 20.9198 158.767 21.6238L159.375 21.0158C159.695 21.5278 159.983 22.1145 160.239 22.7758C160.495 23.4158 160.697 24.0771 160.847 24.7598C160.996 25.4211 161.071 26.0398 161.071 26.6158C161.071 28.1305 160.601 29.2931 159.663 30.1038C158.724 30.8931 157.497 31.2878 155.983 31.2878Z" fill="white"/>
<path d="M135.555 7.9917C138.371 7.9917 140.441 8.64237 141.763 9.9437C143.107 11.245 143.779 12.9517 143.779 15.0637C143.779 16.5144 143.438 17.773 142.755 18.8397C142.094 19.9064 141.187 20.7384 140.035 21.3357C138.905 21.9117 137.614 22.1997 136.163 22.1997C135.651 22.1997 135.107 22.157 134.531 22.0717C133.955 21.965 133.358 21.805 132.739 21.5917L133.027 20.6957C133.198 21.165 133.337 21.7517 133.443 22.4557C133.571 23.1384 133.667 23.853 133.731 24.5997C133.817 25.325 133.859 25.997 133.859 26.6157C133.859 28.109 133.497 29.2504 132.771 30.0397C132.067 30.829 131.001 31.2237 129.571 31.2237C128.483 31.2237 127.63 30.9677 127.011 30.4557C126.414 29.9224 125.987 29.0584 125.731 27.8637C125.497 26.669 125.379 25.0797 125.379 23.0957C125.379 20.4077 125.539 18.1144 125.859 16.2157C126.201 14.317 126.681 12.8024 127.299 11.6717C127.918 10.541 128.931 9.64503 130.339 8.9837C131.747 8.32237 133.486 7.9917 135.555 7.9917ZM134.659 17.5917C135.705 17.5917 136.569 17.325 137.251 16.7917C137.955 16.2584 138.307 15.533 138.307 14.6157C138.307 14.0184 138.115 13.5277 137.731 13.1437C137.369 12.7384 136.729 12.5357 135.811 12.5357C135.107 12.5357 134.478 12.685 133.923 12.9837C133.39 13.261 132.963 13.6344 132.643 14.1037C132.345 14.573 132.195 15.0744 132.195 15.6077C132.195 16.1837 132.398 16.6637 132.803 17.0477C133.23 17.4104 133.849 17.5917 134.659 17.5917Z" fill="white"/>
<path d="M109.732 31.0959C107.556 31.0959 105.614 30.6372 103.908 29.7199C102.222 28.8026 100.889 27.5012 99.9078 25.8159C98.9478 24.1306 98.4678 22.1359 98.4678 19.8319C98.4678 17.6346 98.9478 15.7252 99.9078 14.1039C100.868 12.4826 102.222 11.2239 103.972 10.3279C105.742 9.43189 107.812 8.98389 110.18 8.98389C112.484 8.98389 114.478 9.39989 116.164 10.2319C117.87 11.0426 119.193 12.1946 120.132 13.6879C121.07 15.1599 121.54 16.8772 121.54 18.8399C121.54 20.5039 121.262 22.0826 120.708 23.5759C120.153 25.0479 119.353 26.3492 118.308 27.4799C117.284 28.6106 116.046 29.4959 114.596 30.1359C113.145 30.7759 111.524 31.0959 109.732 31.0959ZM110.212 23.9279C111.364 23.9279 112.281 23.5332 112.964 22.7439C113.646 21.9546 113.988 20.9092 113.988 19.6079C113.988 18.5839 113.678 17.7732 113.06 17.1759C112.441 16.5572 111.588 16.2479 110.5 16.2479C109.732 16.2479 109.049 16.4186 108.452 16.7599C107.854 17.0799 107.385 17.5386 107.044 18.1359C106.724 18.7332 106.564 19.4372 106.564 20.2479C106.564 21.3572 106.894 22.2532 107.556 22.9359C108.238 23.5972 109.124 23.9279 110.212 23.9279Z" fill="white"/>
<path d="M83.4535 29.8478C81.1708 29.8478 79.1868 29.4425 77.5015 28.6318C75.8161 27.8212 74.5041 26.6478 73.5655 25.1118C72.6481 23.5758 72.1895 21.7198 72.1895 19.5438C72.1895 17.8372 72.4775 16.2692 73.0535 14.8398C73.6508 13.3892 74.4721 12.1412 75.5175 11.0958C76.5841 10.0292 77.8001 9.20784 79.1655 8.63184C80.5521 8.03451 82.0241 7.73584 83.5815 7.73584C85.1388 7.73584 86.6001 8.01317 87.9655 8.56784C89.3521 9.12251 90.5681 9.90117 91.6135 10.9038C92.6588 11.9065 93.4695 13.0905 94.0455 14.4558C94.6428 15.7998 94.9415 17.2718 94.9415 18.8718C94.9415 21.1972 94.4615 23.1812 93.5015 24.8238C92.5628 26.4665 91.2295 27.7145 89.5015 28.5678C87.7948 29.4212 85.7788 29.8478 83.4535 29.8478ZM83.1975 21.3998C84.4135 21.3998 85.3841 21.1012 86.1095 20.5038C86.8561 19.8852 87.2295 19.0638 87.2295 18.0398C87.2295 17.3572 87.0588 16.7705 86.7175 16.2798C86.3975 15.7678 85.9281 15.3732 85.3095 15.0958C84.7121 14.8185 84.0081 14.6798 83.1975 14.6798C82.3868 14.6798 81.6721 14.8185 81.0535 15.0958C80.4561 15.3732 79.9868 15.7678 79.6455 16.2798C79.3255 16.7705 79.1655 17.3572 79.1655 18.0398C79.1655 19.0638 79.5281 19.8852 80.2535 20.5038C81.0001 21.1012 81.9815 21.3998 83.1975 21.3998Z" fill="white"/>
<path d="M60.594 7.9917C63.41 7.9917 65.4793 8.64237 66.802 9.9437C68.146 11.245 68.818 12.9517 68.818 15.0637C68.818 16.5144 68.4766 17.773 67.794 18.8397C67.1326 19.9064 66.226 20.7384 65.074 21.3357C63.9433 21.9117 62.6526 22.1997 61.202 22.1997C60.69 22.1997 60.146 22.157 59.57 22.0717C58.994 21.965 58.3966 21.805 57.778 21.5917L58.066 20.6957C58.2366 21.165 58.3753 21.7517 58.482 22.4557C58.61 23.1384 58.706 23.853 58.77 24.5997C58.8553 25.325 58.898 25.997 58.898 26.6157C58.898 28.109 58.5353 29.2504 57.81 30.0397C57.106 30.829 56.0393 31.2237 54.61 31.2237C53.522 31.2237 52.6686 30.9677 52.05 30.4557C51.4526 29.9224 51.026 29.0584 50.77 27.8637C50.5353 26.669 50.418 25.0797 50.418 23.0957C50.418 20.4077 50.578 18.1144 50.898 16.2157C51.2393 14.317 51.7193 12.8024 52.338 11.6717C52.9566 10.541 53.97 9.64503 55.378 8.9837C56.786 8.32237 58.5246 7.9917 60.594 7.9917ZM59.698 17.5917C60.7433 17.5917 61.6073 17.325 62.29 16.7917C62.994 16.2584 63.346 15.533 63.346 14.6157C63.346 14.0184 63.154 13.5277 62.77 13.1437C62.4073 12.7384 61.7673 12.5357 60.85 12.5357C60.146 12.5357 59.5166 12.685 58.962 12.9837C58.4286 13.261 58.002 13.6344 57.682 14.1037C57.3833 14.573 57.234 15.0744 57.234 15.6077C57.234 16.1837 57.4366 16.6637 57.842 17.0477C58.2686 17.4104 58.8873 17.5917 59.698 17.5917Z" fill="white"/>
</svg>
