<svg width="28" height="28" viewBox="0 0 28 28" fill="none" xmlns="http://www.w3.org/2000/svg">
<path d="M10.6602 8.84064C10.6602 9.28056 10.4188 10.9155 10.7379 11.1707C11.5743 11.8399 12.0482 12.6588 13.2147 12.8708C13.9129 12.9978 15.1555 12.9817 15.7519 12.5688C16.9062 11.7697 17.5905 9.65929 17.6505 8.3401C17.6995 7.26257 18.2595 5.91233 16.7961 5.58713C15.637 5.32955 14.2672 5.09196 13.068 5.27645C10.4975 5.67191 9.81794 9.42068 10.5049 11.4814M6 22.7888C6 19.9998 8.89743 17.9534 11.4369 17.6712C13.4882 17.4433 15.6174 17.7598 17.6505 17.8179C18.3216 17.8371 19.0452 18.3067 19.5146 18.75C19.8684 19.0841 20.4357 19.7695 20.8263 19.9927C21.5616 20.4128 21.6165 21.9029 22 22.4781" stroke="#97996C" stroke-width="2" stroke-linecap="round"/>
</svg>
